{
	"asset":{
		"generator":"Khronos glTF Blender I/O v4.0.44",
		"version":"2.0"
	},
	"extensionsUsed":[
		"KHR_materials_emissive_strength",
		"KHR_lights_punctual"
	],
	"extensionsRequired":[
		"KHR_lights_punctual"
	],
	"extensions":{
		"KHR_lights_punctual":{
			"lights":[
				{
					"color":[
						1,
						0.5685409307479858,
						0.15368248522281647
					],
					"intensity":5435.141306588225,
					"type":"point",
					"name":"Point"
				}
			]
		}
	},
	"scene":0,
	"scenes":[
		{
			"name":"Scene",
			"nodes":[
				0,
				1,
				2,
				3,
				4,
				5
			]
		}
	],
	"nodes":[
		{
			"mesh":0,
			"name":"glass",
			"rotation":[
				0,
				-0.15643444657325745,
				0,
				0.987688422203064
			],
			"scale":[
				0.20000000298023224,
				0.20000000298023224,
				0.20000000298023224
			],
			"translation":[
				0,
				0.2703726291656494,
				0
			]
		},
		{
			"mesh":1,
			"name":"base",
			"scale":[
				0.10000000149011612,
				0.10000000149011612,
				0.10000000149011612
			]
		},
		{
			"mesh":2,
			"name":"poleRight",
			"rotation":[
				0,
				0,
				-0.05050843954086304,
				0.9987237453460693
			],
			"scale":[
				0.0029999997932463884,
				0.1199999675154686,
				0.003000000026077032
			],
			"translation":[
				0.053605999797582626,
				0.20990097522735596,
				0
			]
		},
		{
			"mesh":3,
			"name":"poleLeft",
			"rotation":[
				0,
				0,
				0.05050841346383095,
				0.9987237453460693
			],
			"scale":[
				0.0029999997932463884,
				0.1199999675154686,
				0.003000000026077032
			],
			"translation":[
				-0.053605999797582626,
				0.20990097522735596,
				0
			]
		},
		{
			"extensions":{
				"KHR_lights_punctual":{
					"light":0
				}
			},
			"name":"light",
			"rotation":[
				-0.7071068286895752,
				0,
				0,
				0.7071068286895752
			],
			"translation":[
				0,
				0.2589871883392334,
				0
			]
		},
		{
			"mesh":4,
			"name":"filament",
			"rotation":[
				0.5,
				0.5,
				0.5,
				0.5
			],
			"scale":[
				0.0020000000949949026,
				0.0020000000949949026,
				0.0017900000093504786
			],
			"translation":[
				0.06650366634130478,
				0.3270561099052429,
				0.0020924618002027273
			]
		}
	],
	"animations":[
		{
			"channels":[
				{
					"sampler":0,
					"target":{
						"node":4,
						"path":"translation"
					}
				},
				{
					"sampler":1,
					"target":{
						"node":4,
						"path":"rotation"
					}
				},
				{
					"sampler":2,
					"target":{
						"node":4,
						"path":"scale"
					}
				}
			],
			"name":"offon.001",
			"samplers":[
				{
					"input":23,
					"interpolation":"STEP",
					"output":24
				},
				{
					"input":23,
					"interpolation":"STEP",
					"output":25
				},
				{
					"input":23,
					"interpolation":"STEP",
					"output":26
				}
			]
		},
		{
			"channels":[
				{
					"sampler":0,
					"target":{
						"node":5,
						"path":"translation"
					}
				},
				{
					"sampler":1,
					"target":{
						"node":5,
						"path":"rotation"
					}
				},
				{
					"sampler":2,
					"target":{
						"node":5,
						"path":"scale"
					}
				}
			],
			"name":"off",
			"samplers":[
				{
					"input":27,
					"interpolation":"STEP",
					"output":28
				},
				{
					"input":27,
					"interpolation":"STEP",
					"output":29
				},
				{
					"input":27,
					"interpolation":"STEP",
					"output":30
				}
			]
		},
		{
			"channels":[
				{
					"sampler":0,
					"target":{
						"node":5,
						"path":"translation"
					}
				},
				{
					"sampler":1,
					"target":{
						"node":5,
						"path":"rotation"
					}
				},
				{
					"sampler":2,
					"target":{
						"node":5,
						"path":"scale"
					}
				}
			],
			"name":"offon",
			"samplers":[
				{
					"input":23,
					"interpolation":"STEP",
					"output":31
				},
				{
					"input":23,
					"interpolation":"STEP",
					"output":32
				},
				{
					"input":23,
					"interpolation":"STEP",
					"output":33
				}
			]
		}
	],
	"materials":[
		{
			"doubleSided":true,
			"name":"glass",
			"pbrMetallicRoughness":{}
		},
		{
			"doubleSided":true,
			"name":"body",
			"pbrMetallicRoughness":{
				"baseColorFactor":[
					0.16657692193984985,
					0.15273460745811462,
					0.18446989357471466,
					1
				],
				"roughnessFactor":0.5
			}
		},
		{
			"doubleSided":true,
			"emissiveFactor":[
				1,
				0.3150857739924886,
				0.10856322825639274
			],
			"extensions":{
				"KHR_materials_emissive_strength":{
					"emissiveStrength":2.0000016689300537
				}
			},
			"name":"glow",
			"pbrMetallicRoughness":{
				"baseColorFactor":[
					0,
					0,
					0,
					1
				]
			}
		}
	],
	"meshes":[
		{
			"name":"Icosphere",
			"primitives":[
				{
					"attributes":{
						"POSITION":0,
						"NORMAL":1,
						"TEXCOORD_0":2,
						"TANGENT":3
					},
					"indices":4,
					"material":0
				}
			]
		},
		{
			"name":"Cylinder.001",
			"primitives":[
				{
					"attributes":{
						"POSITION":5,
						"NORMAL":6,
						"TEXCOORD_0":7
					},
					"indices":8,
					"material":1
				}
			]
		},
		{
			"name":"Cylinder.002",
			"primitives":[
				{
					"attributes":{
						"POSITION":9,
						"NORMAL":10,
						"TEXCOORD_0":11,
						"TANGENT":12
					},
					"indices":13,
					"material":2
				}
			]
		},
		{
			"name":"Cylinder.003",
			"primitives":[
				{
					"attributes":{
						"POSITION":14,
						"NORMAL":15,
						"TEXCOORD_0":16,
						"TANGENT":17
					},
					"indices":13,
					"material":2
				}
			]
		},
		{
			"name":"Circle",
			"primitives":[
				{
					"attributes":{
						"POSITION":18,
						"NORMAL":19,
						"TEXCOORD_0":20,
						"TANGENT":21
					},
					"indices":22,
					"material":2
				}
			]
		}
	],
	"accessors":[
		{
			"bufferView":0,
			"componentType":5126,
			"count":240,
			"max":[
				0.9510578513145447,
				1,
				0.9999999403953552
			],
			"min":[
				-0.9510578513145447,
				-1,
				-0.9999999403953552
			],
			"type":"VEC3"
		},
		{
			"bufferView":1,
			"componentType":5126,
			"count":240,
			"type":"VEC3"
		},
		{
			"bufferView":2,
			"componentType":5126,
			"count":240,
			"type":"VEC2"
		},
		{
			"bufferView":3,
			"componentType":5126,
			"count":240,
			"type":"VEC4"
		},
		{
			"bufferView":4,
			"componentType":5123,
			"count":240,
			"type":"SCALAR"
		},
		{
			"bufferView":5,
			"componentType":5126,
			"count":30,
			"max":[
				0.9510565400123596,
				1,
				0.8090170621871948
			],
			"min":[
				-0.9510564804077148,
				-1,
				-1
			],
			"type":"VEC3"
		},
		{
			"bufferView":6,
			"componentType":5126,
			"count":30,
			"type":"VEC3"
		},
		{
			"bufferView":7,
			"componentType":5126,
			"count":30,
			"type":"VEC2"
		},
		{
			"bufferView":8,
			"componentType":5123,
			"count":48,
			"type":"SCALAR"
		},
		{
			"bufferView":9,
			"componentType":5126,
			"count":24,
			"max":[
				1,
				1,
				1
			],
			"min":[
				-1,
				-1,
				-1
			],
			"type":"VEC3"
		},
		{
			"bufferView":10,
			"componentType":5126,
			"count":24,
			"type":"VEC3"
		},
		{
			"bufferView":11,
			"componentType":5126,
			"count":24,
			"type":"VEC2"
		},
		{
			"bufferView":12,
			"componentType":5126,
			"count":24,
			"type":"VEC4"
		},
		{
			"bufferView":13,
			"componentType":5123,
			"count":36,
			"type":"SCALAR"
		},
		{
			"bufferView":14,
			"componentType":5126,
			"count":24,
			"max":[
				1,
				1,
				1
			],
			"min":[
				-1,
				-1,
				-1
			],
			"type":"VEC3"
		},
		{
			"bufferView":15,
			"componentType":5126,
			"count":24,
			"type":"VEC3"
		},
		{
			"bufferView":16,
			"componentType":5126,
			"count":24,
			"type":"VEC2"
		},
		{
			"bufferView":17,
			"componentType":5126,
			"count":24,
			"type":"VEC4"
		},
		{
			"bufferView":18,
			"componentType":5126,
			"count":2210,
			"max":[
				1,
				25.846908569335938,
				1
			],
			"min":[
				-50.693817138671875,
				-25.84691047668457,
				-74.99998474121094
			],
			"type":"VEC3"
		},
		{
			"bufferView":19,
			"componentType":5126,
			"count":2210,
			"type":"VEC3"
		},
		{
			"bufferView":20,
			"componentType":5126,
			"count":2210,
			"type":"VEC2"
		},
		{
			"bufferView":21,
			"componentType":5126,
			"count":2210,
			"type":"VEC4"
		},
		{
			"bufferView":22,
			"componentType":5123,
			"count":12288,
			"type":"SCALAR"
		},
		{
			"bufferView":23,
			"componentType":5126,
			"count":2,
			"max":[
				3
			],
			"min":[
				0
			],
			"type":"SCALAR"
		},
		{
			"bufferView":24,
			"componentType":5126,
			"count":2,
			"type":"VEC3"
		},
		{
			"bufferView":25,
			"componentType":5126,
			"count":2,
			"type":"VEC4"
		},
		{
			"bufferView":26,
			"componentType":5126,
			"count":2,
			"type":"VEC3"
		},
		{
			"bufferView":27,
			"componentType":5126,
			"count":2,
			"max":[
				4
			],
			"min":[
				0
			],
			"type":"SCALAR"
		},
		{
			"bufferView":28,
			"componentType":5126,
			"count":2,
			"type":"VEC3"
		},
		{
			"bufferView":29,
			"componentType":5126,
			"count":2,
			"type":"VEC4"
		},
		{
			"bufferView":30,
			"componentType":5126,
			"count":2,
			"type":"VEC3"
		},
		{
			"bufferView":31,
			"componentType":5126,
			"count":2,
			"type":"VEC3"
		},
		{
			"bufferView":32,
			"componentType":5126,
			"count":2,
			"type":"VEC4"
		},
		{
			"bufferView":33,
			"componentType":5126,
			"count":2,
			"type":"VEC3"
		}
	],
	"bufferViews":[
		{
			"buffer":0,
			"byteLength":2880,
			"byteOffset":0,
			"target":34962
		},
		{
			"buffer":0,
			"byteLength":2880,
			"byteOffset":2880,
			"target":34962
		},
		{
			"buffer":0,
			"byteLength":1920,
			"byteOffset":5760,
			"target":34962
		},
		{
			"buffer":0,
			"byteLength":3840,
			"byteOffset":7680,
			"target":34962
		},
		{
			"buffer":0,
			"byteLength":480,
			"byteOffset":11520,
			"target":34963
		},
		{
			"buffer":0,
			"byteLength":360,
			"byteOffset":12000,
			"target":34962
		},
		{
			"buffer":0,
			"byteLength":360,
			"byteOffset":12360,
			"target":34962
		},
		{
			"buffer":0,
			"byteLength":240,
			"byteOffset":12720,
			"target":34962
		},
		{
			"buffer":0,
			"byteLength":96,
			"byteOffset":12960,
			"target":34963
		},
		{
			"buffer":0,
			"byteLength":288,
			"byteOffset":13056,
			"target":34962
		},
		{
			"buffer":0,
			"byteLength":288,
			"byteOffset":13344,
			"target":34962
		},
		{
			"buffer":0,
			"byteLength":192,
			"byteOffset":13632,
			"target":34962
		},
		{
			"buffer":0,
			"byteLength":384,
			"byteOffset":13824,
			"target":34962
		},
		{
			"buffer":0,
			"byteLength":72,
			"byteOffset":14208,
			"target":34963
		},
		{
			"buffer":0,
			"byteLength":288,
			"byteOffset":14280,
			"target":34962
		},
		{
			"buffer":0,
			"byteLength":288,
			"byteOffset":14568,
			"target":34962
		},
		{
			"buffer":0,
			"byteLength":192,
			"byteOffset":14856,
			"target":34962
		},
		{
			"buffer":0,
			"byteLength":384,
			"byteOffset":15048,
			"target":34962
		},
		{
			"buffer":0,
			"byteLength":26520,
			"byteOffset":15432,
			"target":34962
		},
		{
			"buffer":0,
			"byteLength":26520,
			"byteOffset":41952,
			"target":34962
		},
		{
			"buffer":0,
			"byteLength":17680,
			"byteOffset":68472,
			"target":34962
		},
		{
			"buffer":0,
			"byteLength":35360,
			"byteOffset":86152,
			"target":34962
		},
		{
			"buffer":0,
			"byteLength":24576,
			"byteOffset":121512,
			"target":34963
		},
		{
			"buffer":0,
			"byteLength":8,
			"byteOffset":146088
		},
		{
			"buffer":0,
			"byteLength":24,
			"byteOffset":146096
		},
		{
			"buffer":0,
			"byteLength":32,
			"byteOffset":146120
		},
		{
			"buffer":0,
			"byteLength":24,
			"byteOffset":146152
		},
		{
			"buffer":0,
			"byteLength":8,
			"byteOffset":146176
		},
		{
			"buffer":0,
			"byteLength":24,
			"byteOffset":146184
		},
		{
			"buffer":0,
			"byteLength":32,
			"byteOffset":146208
		},
		{
			"buffer":0,
			"byteLength":24,
			"byteOffset":146240
		},
		{
			"buffer":0,
			"byteLength":24,
			"byteOffset":146264
		},
		{
			"buffer":0,
			"byteLength":32,
			"byteOffset":146288
		},
		{
			"buffer":0,
			"byteLength":24,
			"byteOffset":146320
		}
	],
	"buffers":[
		{
			"byteLength":146344,
			"uri":"filamentbulb-9f974d6597d2b661b258d85690095800.bin"
		}
	]
}
