{
	"asset":{
		"generator":"Khronos glTF Blender I/O v4.0.44",
		"version":"2.0"
	},
	"scene":0,
	"scenes":[
		{
			"name":"Scene",
			"nodes":[
				4,
				8,
				12
			]
		}
	],
	"nodes":[
		{
			"name":"Bone"
		},
		{
			"mesh":0,
			"name":"Antenna-Left",
			"skin":0
		},
		{
			"mesh":1,
			"name":"Antenna-Right",
			"skin":0
		},
		{
			"mesh":2,
			"name":"Body",
			"skin":0
		},
		{
			"children":[
				1,
				2,
				3,
				0
			],
			"name":"BodyBone",
			"rotation":[
				-0.5,
				0.5,
				-0.5,
				0.5
			],
			"scale":[
				0.10999999940395355,
				0.10999999940395355,
				0.10999999940395355
			],
			"translation":[
				0,
				0,
				0.04999999701976776
			]
		},
		{
			"name":"Bone"
		},
		{
			"mesh":3,
			"name":"bottomLeft",
			"skin":1
		},
		{
			"mesh":4,
			"name":"topLeft",
			"skin":1
		},
		{
			"children":[
				6,
				7,
				5
			],
			"name":"boneLeft",
			"rotation":[
				-0.7071068286895752,
				0.7071068286895752,
				0,
				3.090862321641907e-08
			],
			"scale":[
				0.10999999940395355,
				0.10999999940395355,
				0.10999999940395355
			]
		},
		{
			"name":"Bone",
			"rotation":[
				0,
				0,
				-8.881784197001252e-16,
				1
			]
		},
		{
			"mesh":5,
			"name":"bottomRight",
			"skin":2
		},
		{
			"mesh":6,
			"name":"topRight",
			"skin":2
		},
		{
			"children":[
				10,
				11,
				9
			],
			"name":"boneRight",
			"rotation":[
				0,
				0,
				-0.7071068286895752,
				0.7071068286895752
			],
			"scale":[
				0.10999999940395355,
				0.10999998450279236,
				0.10999999940395355
			]
		}
	],
	"animations":[
		{
			"channels":[
				{
					"sampler":0,
					"target":{
						"node":5,
						"path":"translation"
					}
				},
				{
					"sampler":1,
					"target":{
						"node":5,
						"path":"rotation"
					}
				},
				{
					"sampler":2,
					"target":{
						"node":5,
						"path":"scale"
					}
				}
			],
			"name":"LeftBoneAction.002",
			"samplers":[
				{
					"input":46,
					"interpolation":"STEP",
					"output":47
				},
				{
					"input":48,
					"interpolation":"LINEAR",
					"output":49
				},
				{
					"input":46,
					"interpolation":"STEP",
					"output":50
				}
			]
		},
		{
			"channels":[
				{
					"sampler":0,
					"target":{
						"node":9,
						"path":"translation"
					}
				},
				{
					"sampler":1,
					"target":{
						"node":9,
						"path":"rotation"
					}
				},
				{
					"sampler":2,
					"target":{
						"node":9,
						"path":"scale"
					}
				}
			],
			"name":"RightBoneAction",
			"samplers":[
				{
					"input":46,
					"interpolation":"STEP",
					"output":51
				},
				{
					"input":48,
					"interpolation":"LINEAR",
					"output":52
				},
				{
					"input":46,
					"interpolation":"STEP",
					"output":53
				}
			]
		}
	],
	"materials":[
		{
			"doubleSided":true,
			"name":"Body",
			"pbrMetallicRoughness":{
				"baseColorFactor":[
					0,
					0,
					0,
					1
				],
				"metallicFactor":0,
				"roughnessFactor":0.5
			}
		},
		{
			"doubleSided":true,
			"name":"Wings",
			"pbrMetallicRoughness":{
				"baseColorFactor":[
					0.0006228541024029255,
					0.011152425780892372,
					0.8000000715255737,
					1
				],
				"metallicFactor":0,
				"roughnessFactor":0.5
			}
		}
	],
	"meshes":[
		{
			"name":"Cylinder.003",
			"primitives":[
				{
					"attributes":{
						"POSITION":0,
						"NORMAL":1,
						"TEXCOORD_0":2,
						"TANGENT":3,
						"JOINTS_0":4,
						"WEIGHTS_0":5
					},
					"indices":6,
					"material":0
				}
			]
		},
		{
			"name":"Cylinder.002",
			"primitives":[
				{
					"attributes":{
						"POSITION":8,
						"NORMAL":9,
						"TEXCOORD_0":10,
						"TANGENT":11,
						"JOINTS_0":12,
						"WEIGHTS_0":13
					},
					"indices":6,
					"material":0
				}
			]
		},
		{
			"name":"Cylinder.001",
			"primitives":[
				{
					"attributes":{
						"POSITION":14,
						"NORMAL":15,
						"TEXCOORD_0":16,
						"TANGENT":17,
						"JOINTS_0":18,
						"WEIGHTS_0":19
					},
					"indices":6,
					"material":0
				}
			]
		},
		{
			"name":"Plane.003",
			"primitives":[
				{
					"attributes":{
						"POSITION":20,
						"NORMAL":21,
						"TEXCOORD_0":22,
						"JOINTS_0":23,
						"WEIGHTS_0":24
					},
					"indices":25,
					"material":1
				}
			]
		},
		{
			"name":"Plane.001",
			"primitives":[
				{
					"attributes":{
						"POSITION":27,
						"NORMAL":28,
						"TEXCOORD_0":29,
						"JOINTS_0":30,
						"WEIGHTS_0":31
					},
					"indices":32,
					"material":1
				}
			]
		},
		{
			"name":"Plane.004",
			"primitives":[
				{
					"attributes":{
						"POSITION":33,
						"NORMAL":34,
						"TEXCOORD_0":35,
						"JOINTS_0":36,
						"WEIGHTS_0":37
					},
					"indices":38,
					"material":1
				}
			]
		},
		{
			"name":"Plane.002",
			"primitives":[
				{
					"attributes":{
						"POSITION":40,
						"NORMAL":41,
						"TEXCOORD_0":42,
						"JOINTS_0":43,
						"WEIGHTS_0":44
					},
					"indices":45,
					"material":1
				}
			]
		}
	],
	"skins":[
		{
			"inverseBindMatrices":7,
			"joints":[
				0
			],
			"name":"BodyBone"
		},
		{
			"inverseBindMatrices":26,
			"joints":[
				5
			],
			"name":"boneLeft"
		},
		{
			"inverseBindMatrices":39,
			"joints":[
				9
			],
			"name":"boneRight"
		}
	],
	"accessors":[
		{
			"bufferView":0,
			"componentType":5126,
			"count":24,
			"max":[
				-0.00013397564180195332,
				0.056480761617422104,
				-0.05400000140070915
			],
			"min":[
				-0.03186602517962456,
				0.0035192379727959633,
				-0.0559999980032444
			],
			"type":"VEC3"
		},
		{
			"bufferView":1,
			"componentType":5126,
			"count":24,
			"type":"VEC3"
		},
		{
			"bufferView":2,
			"componentType":5126,
			"count":24,
			"type":"VEC2"
		},
		{
			"bufferView":3,
			"componentType":5126,
			"count":24,
			"type":"VEC4"
		},
		{
			"bufferView":4,
			"componentType":5121,
			"count":24,
			"type":"VEC4"
		},
		{
			"bufferView":5,
			"componentType":5126,
			"count":24,
			"type":"VEC4"
		},
		{
			"bufferView":6,
			"componentType":5123,
			"count":36,
			"type":"SCALAR"
		},
		{
			"bufferView":7,
			"componentType":5126,
			"count":1,
			"type":"MAT4"
		},
		{
			"bufferView":8,
			"componentType":5126,
			"count":24,
			"max":[
				0.03186602517962456,
				0.056480761617422104,
				-0.05400000140070915
			],
			"min":[
				0.00013397564180195332,
				0.0035192379727959633,
				-0.0559999980032444
			],
			"type":"VEC3"
		},
		{
			"bufferView":9,
			"componentType":5126,
			"count":24,
			"type":"VEC3"
		},
		{
			"bufferView":10,
			"componentType":5126,
			"count":24,
			"type":"VEC2"
		},
		{
			"bufferView":11,
			"componentType":5126,
			"count":24,
			"type":"VEC4"
		},
		{
			"bufferView":12,
			"componentType":5121,
			"count":24,
			"type":"VEC4"
		},
		{
			"bufferView":13,
			"componentType":5126,
			"count":24,
			"type":"VEC4"
		},
		{
			"bufferView":14,
			"componentType":5126,
			"count":24,
			"max":[
				0.009999999776482582,
				0.009999999776482582,
				0.07000000029802322
			],
			"min":[
				-0.009999999776482582,
				-0.009999999776482582,
				-0.07000000029802322
			],
			"type":"VEC3"
		},
		{
			"bufferView":15,
			"componentType":5126,
			"count":24,
			"type":"VEC3"
		},
		{
			"bufferView":16,
			"componentType":5126,
			"count":24,
			"type":"VEC2"
		},
		{
			"bufferView":17,
			"componentType":5126,
			"count":24,
			"type":"VEC4"
		},
		{
			"bufferView":18,
			"componentType":5121,
			"count":24,
			"type":"VEC4"
		},
		{
			"bufferView":19,
			"componentType":5126,
			"count":24,
			"type":"VEC4"
		},
		{
			"bufferView":20,
			"componentType":5126,
			"count":58,
			"max":[
				3.0390998051466056e-10,
				0.0014763347571715713,
				0.1388339251279831
			],
			"min":[
				-0.11824815720319748,
				-0.0020000070799142122,
				-5.689893001203927e-16
			],
			"type":"VEC3"
		},
		{
			"bufferView":21,
			"componentType":5126,
			"count":58,
			"type":"VEC3"
		},
		{
			"bufferView":22,
			"componentType":5126,
			"count":58,
			"type":"VEC2"
		},
		{
			"bufferView":23,
			"componentType":5121,
			"count":58,
			"type":"VEC4"
		},
		{
			"bufferView":24,
			"componentType":5126,
			"count":58,
			"type":"VEC4"
		},
		{
			"bufferView":25,
			"componentType":5123,
			"count":96,
			"type":"SCALAR"
		},
		{
			"bufferView":26,
			"componentType":5126,
			"count":1,
			"type":"MAT4"
		},
		{
			"bufferView":27,
			"componentType":5126,
			"count":42,
			"max":[
				5.689893001203927e-16,
				0.0014763383660465479,
				-2.3592239273284576e-16
			],
			"min":[
				-0.1599999964237213,
				-0.0020000070799142122,
				-0.15222616493701935
			],
			"type":"VEC3"
		},
		{
			"bufferView":28,
			"componentType":5126,
			"count":42,
			"type":"VEC3"
		},
		{
			"bufferView":29,
			"componentType":5126,
			"count":42,
			"type":"VEC2"
		},
		{
			"bufferView":30,
			"componentType":5121,
			"count":42,
			"type":"VEC4"
		},
		{
			"bufferView":31,
			"componentType":5126,
			"count":42,
			"type":"VEC4"
		},
		{
			"bufferView":32,
			"componentType":5123,
			"count":72,
			"type":"SCALAR"
		},
		{
			"bufferView":33,
			"componentType":5126,
			"count":58,
			"max":[
				0.11824815720319748,
				0.0014763313811272383,
				0.1388339251279831
			],
			"min":[
				-1.3877787807814457e-17,
				-0.0020000000949949026,
				0
			],
			"type":"VEC3"
		},
		{
			"bufferView":34,
			"componentType":5126,
			"count":58,
			"type":"VEC3"
		},
		{
			"bufferView":35,
			"componentType":5126,
			"count":58,
			"type":"VEC2"
		},
		{
			"bufferView":36,
			"componentType":5121,
			"count":58,
			"type":"VEC4"
		},
		{
			"bufferView":37,
			"componentType":5126,
			"count":58,
			"type":"VEC4"
		},
		{
			"bufferView":38,
			"componentType":5123,
			"count":96,
			"type":"SCALAR"
		},
		{
			"bufferView":39,
			"componentType":5126,
			"count":1,
			"type":"MAT4"
		},
		{
			"bufferView":40,
			"componentType":5126,
			"count":42,
			"max":[
				0.1599999964237213,
				0.0014763313811272383,
				0
			],
			"min":[
				-1.3877787807814457e-17,
				-0.0020000000949949026,
				-0.15222616493701935
			],
			"type":"VEC3"
		},
		{
			"bufferView":41,
			"componentType":5126,
			"count":42,
			"type":"VEC3"
		},
		{
			"bufferView":42,
			"componentType":5126,
			"count":42,
			"type":"VEC2"
		},
		{
			"bufferView":43,
			"componentType":5121,
			"count":42,
			"type":"VEC4"
		},
		{
			"bufferView":44,
			"componentType":5126,
			"count":42,
			"type":"VEC4"
		},
		{
			"bufferView":45,
			"componentType":5123,
			"count":72,
			"type":"SCALAR"
		},
		{
			"bufferView":46,
			"componentType":5126,
			"count":2,
			"max":[
				2
			],
			"min":[
				0
			],
			"type":"SCALAR"
		},
		{
			"bufferView":47,
			"componentType":5126,
			"count":2,
			"type":"VEC3"
		},
		{
			"bufferView":48,
			"componentType":5126,
			"count":121,
			"max":[
				2
			],
			"min":[
				0
			],
			"type":"SCALAR"
		},
		{
			"bufferView":49,
			"componentType":5126,
			"count":121,
			"type":"VEC4"
		},
		{
			"bufferView":50,
			"componentType":5126,
			"count":2,
			"type":"VEC3"
		},
		{
			"bufferView":51,
			"componentType":5126,
			"count":2,
			"type":"VEC3"
		},
		{
			"bufferView":52,
			"componentType":5126,
			"count":121,
			"type":"VEC4"
		},
		{
			"bufferView":53,
			"componentType":5126,
			"count":2,
			"type":"VEC3"
		}
	],
	"bufferViews":[
		{
			"buffer":0,
			"byteLength":288,
			"byteOffset":0,
			"target":34962
		},
		{
			"buffer":0,
			"byteLength":288,
			"byteOffset":288,
			"target":34962
		},
		{
			"buffer":0,
			"byteLength":192,
			"byteOffset":576,
			"target":34962
		},
		{
			"buffer":0,
			"byteLength":384,
			"byteOffset":768,
			"target":34962
		},
		{
			"buffer":0,
			"byteLength":96,
			"byteOffset":1152,
			"target":34962
		},
		{
			"buffer":0,
			"byteLength":384,
			"byteOffset":1248,
			"target":34962
		},
		{
			"buffer":0,
			"byteLength":72,
			"byteOffset":1632,
			"target":34963
		},
		{
			"buffer":0,
			"byteLength":64,
			"byteOffset":1704
		},
		{
			"buffer":0,
			"byteLength":288,
			"byteOffset":1768,
			"target":34962
		},
		{
			"buffer":0,
			"byteLength":288,
			"byteOffset":2056,
			"target":34962
		},
		{
			"buffer":0,
			"byteLength":192,
			"byteOffset":2344,
			"target":34962
		},
		{
			"buffer":0,
			"byteLength":384,
			"byteOffset":2536,
			"target":34962
		},
		{
			"buffer":0,
			"byteLength":96,
			"byteOffset":2920,
			"target":34962
		},
		{
			"buffer":0,
			"byteLength":384,
			"byteOffset":3016,
			"target":34962
		},
		{
			"buffer":0,
			"byteLength":288,
			"byteOffset":3400,
			"target":34962
		},
		{
			"buffer":0,
			"byteLength":288,
			"byteOffset":3688,
			"target":34962
		},
		{
			"buffer":0,
			"byteLength":192,
			"byteOffset":3976,
			"target":34962
		},
		{
			"buffer":0,
			"byteLength":384,
			"byteOffset":4168,
			"target":34962
		},
		{
			"buffer":0,
			"byteLength":96,
			"byteOffset":4552,
			"target":34962
		},
		{
			"buffer":0,
			"byteLength":384,
			"byteOffset":4648,
			"target":34962
		},
		{
			"buffer":0,
			"byteLength":696,
			"byteOffset":5032,
			"target":34962
		},
		{
			"buffer":0,
			"byteLength":696,
			"byteOffset":5728,
			"target":34962
		},
		{
			"buffer":0,
			"byteLength":464,
			"byteOffset":6424,
			"target":34962
		},
		{
			"buffer":0,
			"byteLength":232,
			"byteOffset":6888,
			"target":34962
		},
		{
			"buffer":0,
			"byteLength":928,
			"byteOffset":7120,
			"target":34962
		},
		{
			"buffer":0,
			"byteLength":192,
			"byteOffset":8048,
			"target":34963
		},
		{
			"buffer":0,
			"byteLength":64,
			"byteOffset":8240
		},
		{
			"buffer":0,
			"byteLength":504,
			"byteOffset":8304,
			"target":34962
		},
		{
			"buffer":0,
			"byteLength":504,
			"byteOffset":8808,
			"target":34962
		},
		{
			"buffer":0,
			"byteLength":336,
			"byteOffset":9312,
			"target":34962
		},
		{
			"buffer":0,
			"byteLength":168,
			"byteOffset":9648,
			"target":34962
		},
		{
			"buffer":0,
			"byteLength":672,
			"byteOffset":9816,
			"target":34962
		},
		{
			"buffer":0,
			"byteLength":144,
			"byteOffset":10488,
			"target":34963
		},
		{
			"buffer":0,
			"byteLength":696,
			"byteOffset":10632,
			"target":34962
		},
		{
			"buffer":0,
			"byteLength":696,
			"byteOffset":11328,
			"target":34962
		},
		{
			"buffer":0,
			"byteLength":464,
			"byteOffset":12024,
			"target":34962
		},
		{
			"buffer":0,
			"byteLength":232,
			"byteOffset":12488,
			"target":34962
		},
		{
			"buffer":0,
			"byteLength":928,
			"byteOffset":12720,
			"target":34962
		},
		{
			"buffer":0,
			"byteLength":192,
			"byteOffset":13648,
			"target":34963
		},
		{
			"buffer":0,
			"byteLength":64,
			"byteOffset":13840
		},
		{
			"buffer":0,
			"byteLength":504,
			"byteOffset":13904,
			"target":34962
		},
		{
			"buffer":0,
			"byteLength":504,
			"byteOffset":14408,
			"target":34962
		},
		{
			"buffer":0,
			"byteLength":336,
			"byteOffset":14912,
			"target":34962
		},
		{
			"buffer":0,
			"byteLength":168,
			"byteOffset":15248,
			"target":34962
		},
		{
			"buffer":0,
			"byteLength":672,
			"byteOffset":15416,
			"target":34962
		},
		{
			"buffer":0,
			"byteLength":144,
			"byteOffset":16088,
			"target":34963
		},
		{
			"buffer":0,
			"byteLength":8,
			"byteOffset":16232
		},
		{
			"buffer":0,
			"byteLength":24,
			"byteOffset":16240
		},
		{
			"buffer":0,
			"byteLength":484,
			"byteOffset":16264
		},
		{
			"buffer":0,
			"byteLength":1936,
			"byteOffset":16748
		},
		{
			"buffer":0,
			"byteLength":24,
			"byteOffset":18684
		},
		{
			"buffer":0,
			"byteLength":24,
			"byteOffset":18708
		},
		{
			"buffer":0,
			"byteLength":1936,
			"byteOffset":18732
		},
		{
			"buffer":0,
			"byteLength":24,
			"byteOffset":20668
		}
	],
	"buffers":[
		{
			"byteLength":20692,
			"uri":"flutterby-e48cf3fc55f81062bfee5faefec50283.bin"
		}
	]
}
