{
	"asset":{
		"generator":"Khronos glTF Blender I/O v4.0.44",
		"version":"2.0"
	},
	"scene":0,
	"scenes":[
		{
			"name":"Scene",
			"nodes":[
				18
			]
		}
	],
	"nodes":[
		{
			"mesh":0,
			"name":"eyeLeft",
			"rotation":[
				0.833692193031311,
				0.5513925552368164,
				-2.569344026426279e-08,
				0.03039081208407879
			],
			"scale":[
				1.908218502998352,
				1.9082186222076416,
				1.9082188606262207
			],
			"translation":[
				0.04037969559431076,
				-0.06105336546897888,
				-1.2026163339614868
			]
		},
		{
			"children":[
				0
			],
			"name":"eyeLeft",
			"rotation":[
				0.6109989285469055,
				0.38989344239234924,
				-0.38989347219467163,
				0.5680197477340698
			],
			"translation":[
				-6.352747104407253e-22,
				0.9999998807907104,
				-9.926167350636332e-22
			]
		},
		{
			"mesh":1,
			"name":"eyeRight",
			"rotation":[
				0.5444504618644714,
				0.8381240963935852,
				-5.66711442218093e-08,
				0.03349054977297783
			],
			"scale":[
				1.9082180261611938,
				1.908218264579773,
				1.9082187414169312
			],
			"translation":[
				0.06763792037963867,
				-0.04393814876675606,
				-1.202139139175415
			]
		},
		{
			"children":[
				2
			],
			"name":"eyeRight",
			"rotation":[
				0.40866610407829285,
				0.5926433801651001,
				-0.5926432609558105,
				0.3613032102584839
			],
			"scale":[
				0.9999998211860657,
				0.9999997615814209,
				0.9999998807907104
			],
			"translation":[
				-6.352747104407253e-22,
				0.9999998807907104,
				-9.926167350636332e-22
			]
		},
		{
			"mesh":2,
			"name":"legRight",
			"rotation":[
				-0.7038350701332092,
				3.0765619385419996e-08,
				3.105097334810125e-08,
				0.7103634476661682
			],
			"scale":[
				1.9082186222076416,
				1.9082188606262207,
				1.9082188606262207
			],
			"translation":[
				9.909102177848e-15,
				0.6271841526031494,
				0.27477726340293884
			]
		},
		{
			"children":[
				4
			],
			"name":"legRight",
			"rotation":[
				-0.004616192542016506,
				3.178833551942262e-08,
				5.502852618022303e-10,
				0.9999893307685852
			],
			"scale":[
				1,
				0.9999999403953552,
				1
			],
			"translation":[
				-4.061410052713654e-08,
				1.5751473903656006,
				-0.26897498965263367
			]
		},
		{
			"mesh":3,
			"name":"legLeft",
			"rotation":[
				-0.7103633880615234,
				3.105097334810125e-08,
				3.076561583270632e-08,
				0.703835129737854
			],
			"scale":[
				1.9082186222076416,
				1.9082188606262207,
				1.9082188606262207
			],
			"translation":[
				1.9508653729902192e-16,
				0.6271841526031494,
				-0.27477699518203735
			]
		},
		{
			"children":[
				6
			],
			"name":"legLeft",
			"rotation":[
				0.004616238176822662,
				3.1787774190661366e-08,
				-5.502863720252549e-10,
				0.9999893307685852
			],
			"scale":[
				1,
				0.9999999403953552,
				1
			],
			"translation":[
				4.0614089868995507e-08,
				1.5751473903656006,
				0.26897498965263367
			]
		},
		{
			"mesh":4,
			"name":"armLeft",
			"rotation":[
				0.9983360767364502,
				-0.0006629040581174195,
				2.5872699538354027e-09,
				0.057660192251205444
			],
			"scale":[
				1.9082188606262207,
				1.9082186222076416,
				1.9082183837890625
			],
			"translation":[
				-0.0009484919719398022,
				-0.781467616558075,
				-1.1223357915878296
			]
		},
		{
			"children":[
				8
			],
			"name":"armLeft",
			"rotation":[
				0.05766025185585022,
				1.4576168050339788e-10,
				0.0006628604605793953,
				0.9983360767364502
			],
			"scale":[
				0.9999999403953552,
				1,
				0.9999999403953552
			],
			"translation":[
				4.2351639789650327e-22,
				0.6470589637756348,
				-4.6629367034256575e-15
			]
		},
		{
			"children":[
				9
			],
			"name":"Bone",
			"rotation":[
				0.7071068286895752,
				5.3385068810030134e-08,
				-5.338508302088485e-08,
				0.7071067094802856
			],
			"translation":[
				-6.352747104407253e-22,
				0.9999998807907104,
				-9.926167350636332e-22
			]
		},
		{
			"mesh":5,
			"name":"armRight",
			"rotation":[
				0.05148004740476608,
				-0.007267989218235016,
				-0.0063209012150764465,
				0.9986275434494019
			],
			"scale":[
				1.9082183837890625,
				1.908218502998352,
				1.908218502998352
			],
			"translation":[
				-0.02593468688428402,
				-0.7653681635856628,
				1.1319432258605957
			]
		},
		{
			"children":[
				11
			],
			"name":"armRight",
			"rotation":[
				-0.006320953369140625,
				-0.9986276030540466,
				-0.0514799989759922,
				0.007268061861395836
			],
			"scale":[
				1,
				1.000000238418579,
				1
			],
			"translation":[
				-6.6002348850019085e-15,
				0.6450691223144531,
				0
			]
		},
		{
			"children":[
				12
			],
			"name":"Bone.001",
			"rotation":[
				-1.376787679419067e-07,
				0.7071067690849304,
				-0.7071067690849304,
				3.090862321641907e-08
			],
			"translation":[
				-6.352747104407253e-22,
				0.9999998807907104,
				-9.926167350636332e-22
			]
		},
		{
			"mesh":6,
			"name":"body",
			"rotation":[
				-0.7071067690849304,
				3.090862321641907e-08,
				3.090862321641907e-08,
				0.7071067690849304
			],
			"scale":[
				1.9082186222076416,
				1.9082186222076416,
				1.9082186222076416
			],
			"translation":[
				5.102039314962313e-22,
				2.2048416137695312,
				9.637668796358412e-08
			]
		},
		{
			"mesh":7,
			"name":"cap",
			"rotation":[
				-0.7071067690849304,
				3.090862321641907e-08,
				3.090862321641907e-08,
				0.7071067690849304
			],
			"scale":[
				1.9082186222076416,
				1.9082186222076416,
				1.9082186222076416
			],
			"translation":[
				5.102039314962313e-22,
				2.2048416137695312,
				9.637668796358412e-08
			]
		},
		{
			"mesh":8,
			"name":"waist",
			"rotation":[
				-0.7071067690849304,
				3.090862321641907e-08,
				3.090862321641907e-08,
				0.7071067690849304
			],
			"scale":[
				1.9082186222076416,
				1.9082186222076416,
				1.9082186222076416
			],
			"translation":[
				5.102039314962313e-22,
				2.2048416137695312,
				9.637668796358412e-08
			]
		},
		{
			"children":[
				1,
				3,
				5,
				7,
				10,
				13,
				14,
				15,
				16
			],
			"name":"body",
			"rotation":[
				0.7071067690849304,
				-5.338507591545749e-08,
				-5.338507591545749e-08,
				0.7071067690849304
			],
			"translation":[
				0,
				-9.637668796358412e-08,
				-2.2048416137695312
			]
		},
		{
			"children":[
				17
			],
			"name":"Armature"
		}
	],
	"materials":[
		{
			"doubleSided":true,
			"name":"eye",
			"pbrMetallicRoughness":{
				"baseColorFactor":[
					0.018849125131964684,
					0.018849125131964684,
					0.018849125131964684,
					1
				],
				"roughnessFactor":0.4000000059604645
			}
		},
		{
			"doubleSided":true,
			"name":"body",
			"pbrMetallicRoughness":{
				"baseColorFactor":[
					1,
					0.967272162437439,
					0.6404300928115845,
					1
				],
				"metallicFactor":0,
				"roughnessFactor":0.5
			}
		},
		{
			"doubleSided":true,
			"name":"capWhite",
			"pbrMetallicRoughness":{
				"baseColorFactor":[
					0.800000011920929,
					0.800000011920929,
					0.800000011920929,
					1
				],
				"metallicFactor":0,
				"roughnessFactor":0.5
			}
		},
		{
			"doubleSided":true,
			"name":"capRed",
			"pbrMetallicRoughness":{
				"baseColorFactor":[
					0.8000000715255737,
					0.022248467430472374,
					0.0007964338874444366,
					1
				],
				"metallicFactor":0,
				"roughnessFactor":0.5
			}
		}
	],
	"meshes":[
		{
			"name":"Icosphere.001",
			"primitives":[
				{
					"attributes":{
						"POSITION":0,
						"NORMAL":1,
						"TEXCOORD_0":2,
						"TANGENT":3
					},
					"indices":4,
					"material":0
				}
			]
		},
		{
			"name":"Icosphere.002",
			"primitives":[
				{
					"attributes":{
						"POSITION":5,
						"NORMAL":6,
						"TEXCOORD_0":7,
						"TANGENT":8
					},
					"indices":4,
					"material":0
				}
			]
		},
		{
			"name":"Cylinder.002",
			"primitives":[
				{
					"attributes":{
						"POSITION":9,
						"NORMAL":10,
						"TEXCOORD_0":11
					},
					"indices":12,
					"material":1
				}
			]
		},
		{
			"name":"Cylinder.003",
			"primitives":[
				{
					"attributes":{
						"POSITION":13,
						"NORMAL":14,
						"TEXCOORD_0":15
					},
					"indices":12,
					"material":1
				}
			]
		},
		{
			"name":"Cylinder.005",
			"primitives":[
				{
					"attributes":{
						"POSITION":16,
						"NORMAL":17,
						"TEXCOORD_0":18
					},
					"indices":19,
					"material":1
				}
			]
		},
		{
			"name":"Cylinder.004",
			"primitives":[
				{
					"attributes":{
						"POSITION":20,
						"NORMAL":21,
						"TEXCOORD_0":22
					},
					"indices":12,
					"material":1
				}
			]
		},
		{
			"name":"Cylinder",
			"primitives":[
				{
					"attributes":{
						"POSITION":23,
						"NORMAL":24,
						"TEXCOORD_0":25
					},
					"indices":12,
					"material":1
				}
			]
		},
		{
			"name":"Icosphere",
			"primitives":[
				{
					"attributes":{
						"POSITION":26,
						"NORMAL":27,
						"TEXCOORD_0":28,
						"TANGENT":29
					},
					"indices":30,
					"material":2
				},
				{
					"attributes":{
						"POSITION":31,
						"NORMAL":32,
						"TEXCOORD_0":33,
						"TANGENT":34
					},
					"indices":35,
					"material":3
				}
			]
		},
		{
			"name":"Torus",
			"primitives":[
				{
					"attributes":{
						"POSITION":36,
						"NORMAL":37,
						"TEXCOORD_0":38,
						"TANGENT":39
					},
					"indices":40,
					"material":1
				}
			]
		}
	],
	"skins":[
		{
			"inverseBindMatrices":41,
			"joints":[
				17,
				1,
				3,
				5,
				7,
				10,
				9,
				13,
				12
			],
			"name":"Armature"
		}
	],
	"accessors":[
		{
			"bufferView":0,
			"componentType":5126,
			"count":240,
			"max":[
				0.4286560118198395,
				-0.03420480713248253,
				-0.538672924041748
			],
			"min":[
				0.22929561138153076,
				-0.24382445216178894,
				-0.7482925653457642
			],
			"type":"VEC3"
		},
		{
			"bufferView":1,
			"componentType":5126,
			"count":240,
			"type":"VEC3"
		},
		{
			"bufferView":2,
			"componentType":5126,
			"count":240,
			"type":"VEC2"
		},
		{
			"bufferView":3,
			"componentType":5126,
			"count":240,
			"type":"VEC4"
		},
		{
			"bufferView":4,
			"componentType":5123,
			"count":240,
			"type":"SCALAR"
		},
		{
			"bufferView":5,
			"componentType":5126,
			"count":240,
			"max":[
				0.4286559224128723,
				0.2438240796327591,
				-0.538672685623169
			],
			"min":[
				0.229295551776886,
				0.03420452028512955,
				-0.7482923269271851
			],
			"type":"VEC3"
		},
		{
			"bufferView":6,
			"componentType":5126,
			"count":240,
			"type":"VEC3"
		},
		{
			"bufferView":7,
			"componentType":5126,
			"count":240,
			"type":"VEC2"
		},
		{
			"bufferView":8,
			"componentType":5126,
			"count":240,
			"type":"VEC4"
		},
		{
			"bufferView":9,
			"componentType":5126,
			"count":48,
			"max":[
				0.14725831151008606,
				0.29205408692359924,
				-0.005407187156379223
			],
			"min":[
				-0.14725831151008606,
				-0.00246252934448421,
				-0.3198365271091461
			],
			"type":"VEC3"
		},
		{
			"bufferView":10,
			"componentType":5126,
			"count":48,
			"type":"VEC3"
		},
		{
			"bufferView":11,
			"componentType":5126,
			"count":48,
			"type":"VEC2"
		},
		{
			"bufferView":12,
			"componentType":5123,
			"count":84,
			"type":"SCALAR"
		},
		{
			"bufferView":13,
			"componentType":5126,
			"count":48,
			"max":[
				0.14725831151008606,
				0.002462425036355853,
				-0.0054071396589279175
			],
			"min":[
				-0.14725831151008606,
				-0.2920542061328888,
				-0.31983646750450134
			],
			"type":"VEC3"
		},
		{
			"bufferView":14,
			"componentType":5126,
			"count":48,
			"type":"VEC3"
		},
		{
			"bufferView":15,
			"componentType":5126,
			"count":48,
			"type":"VEC2"
		},
		{
			"bufferView":16,
			"componentType":5126,
			"count":48,
			"max":[
				0.14747191965579987,
				-0.32162392139434814,
				-0.436806321144104
			],
			"min":[
				-0.14704464375972748,
				-0.678316056728363,
				-0.7200829386711121
			],
			"type":"VEC3"
		},
		{
			"bufferView":17,
			"componentType":5126,
			"count":48,
			"type":"VEC3"
		},
		{
			"bufferView":18,
			"componentType":5126,
			"count":48,
			"type":"VEC2"
		},
		{
			"bufferView":19,
			"componentType":5123,
			"count":84,
			"type":"SCALAR"
		},
		{
			"bufferView":20,
			"componentType":5126,
			"count":48,
			"max":[
				0.14941273629665375,
				0.6777803301811218,
				-0.43856555223464966
			],
			"min":[
				-0.14509747922420502,
				0.3217635750770569,
				-0.7223451137542725
			],
			"type":"VEC3"
		},
		{
			"bufferView":21,
			"componentType":5126,
			"count":48,
			"type":"VEC3"
		},
		{
			"bufferView":22,
			"componentType":5126,
			"count":48,
			"type":"VEC2"
		},
		{
			"bufferView":23,
			"componentType":5126,
			"count":48,
			"max":[
				0.5240489840507507,
				0.524048924446106,
				-0.30452781915664673
			],
			"min":[
				-0.5240489840507507,
				-0.5240490436553955,
				-1.352625846862793
			],
			"type":"VEC3"
		},
		{
			"bufferView":24,
			"componentType":5126,
			"count":48,
			"type":"VEC3"
		},
		{
			"bufferView":25,
			"componentType":5126,
			"count":48,
			"type":"VEC2"
		},
		{
			"bufferView":26,
			"componentType":5126,
			"count":78,
			"max":[
				0.598081111907959,
				0.6288586258888245,
				-0.9194898009300232
			],
			"min":[
				-0.598081111907959,
				-0.5349384546279907,
				-1.5594356060028076
			],
			"type":"VEC3"
		},
		{
			"bufferView":27,
			"componentType":5126,
			"count":78,
			"type":"VEC3"
		},
		{
			"bufferView":28,
			"componentType":5126,
			"count":78,
			"type":"VEC2"
		},
		{
			"bufferView":29,
			"componentType":5126,
			"count":78,
			"type":"VEC4"
		},
		{
			"bufferView":30,
			"componentType":5123,
			"count":84,
			"type":"SCALAR"
		},
		{
			"bufferView":31,
			"componentType":5126,
			"count":202,
			"max":[
				0.598081111907959,
				0.6288586258888245,
				-0.9194898009300232
			],
			"min":[
				-0.598081111907959,
				-0.6288589835166931,
				-1.5594356060028076
			],
			"type":"VEC3"
		},
		{
			"bufferView":32,
			"componentType":5126,
			"count":202,
			"type":"VEC3"
		},
		{
			"bufferView":33,
			"componentType":5126,
			"count":202,
			"type":"VEC2"
		},
		{
			"bufferView":34,
			"componentType":5126,
			"count":202,
			"type":"VEC4"
		},
		{
			"bufferView":35,
			"componentType":5123,
			"count":216,
			"type":"SCALAR"
		},
		{
			"bufferView":36,
			"componentType":5126,
			"count":128,
			"max":[
				0.5240489840507507,
				0.524048924446106,
				-0.17351557314395905
			],
			"min":[
				-0.5240489840507507,
				-0.5240490436553955,
				-0.30452796816825867
			],
			"type":"VEC3"
		},
		{
			"bufferView":37,
			"componentType":5126,
			"count":128,
			"type":"VEC3"
		},
		{
			"bufferView":38,
			"componentType":5126,
			"count":128,
			"type":"VEC2"
		},
		{
			"bufferView":39,
			"componentType":5126,
			"count":128,
			"type":"VEC4"
		},
		{
			"bufferView":40,
			"componentType":5123,
			"count":192,
			"type":"SCALAR"
		},
		{
			"bufferView":41,
			"componentType":5126,
			"count":9,
			"type":"MAT4"
		}
	],
	"bufferViews":[
		{
			"buffer":0,
			"byteLength":2880,
			"byteOffset":0,
			"target":34962
		},
		{
			"buffer":0,
			"byteLength":2880,
			"byteOffset":2880,
			"target":34962
		},
		{
			"buffer":0,
			"byteLength":1920,
			"byteOffset":5760,
			"target":34962
		},
		{
			"buffer":0,
			"byteLength":3840,
			"byteOffset":7680,
			"target":34962
		},
		{
			"buffer":0,
			"byteLength":480,
			"byteOffset":11520,
			"target":34963
		},
		{
			"buffer":0,
			"byteLength":2880,
			"byteOffset":12000,
			"target":34962
		},
		{
			"buffer":0,
			"byteLength":2880,
			"byteOffset":14880,
			"target":34962
		},
		{
			"buffer":0,
			"byteLength":1920,
			"byteOffset":17760,
			"target":34962
		},
		{
			"buffer":0,
			"byteLength":3840,
			"byteOffset":19680,
			"target":34962
		},
		{
			"buffer":0,
			"byteLength":576,
			"byteOffset":23520,
			"target":34962
		},
		{
			"buffer":0,
			"byteLength":576,
			"byteOffset":24096,
			"target":34962
		},
		{
			"buffer":0,
			"byteLength":384,
			"byteOffset":24672,
			"target":34962
		},
		{
			"buffer":0,
			"byteLength":168,
			"byteOffset":25056,
			"target":34963
		},
		{
			"buffer":0,
			"byteLength":576,
			"byteOffset":25224,
			"target":34962
		},
		{
			"buffer":0,
			"byteLength":576,
			"byteOffset":25800,
			"target":34962
		},
		{
			"buffer":0,
			"byteLength":384,
			"byteOffset":26376,
			"target":34962
		},
		{
			"buffer":0,
			"byteLength":576,
			"byteOffset":26760,
			"target":34962
		},
		{
			"buffer":0,
			"byteLength":576,
			"byteOffset":27336,
			"target":34962
		},
		{
			"buffer":0,
			"byteLength":384,
			"byteOffset":27912,
			"target":34962
		},
		{
			"buffer":0,
			"byteLength":168,
			"byteOffset":28296,
			"target":34963
		},
		{
			"buffer":0,
			"byteLength":576,
			"byteOffset":28464,
			"target":34962
		},
		{
			"buffer":0,
			"byteLength":576,
			"byteOffset":29040,
			"target":34962
		},
		{
			"buffer":0,
			"byteLength":384,
			"byteOffset":29616,
			"target":34962
		},
		{
			"buffer":0,
			"byteLength":576,
			"byteOffset":30000,
			"target":34962
		},
		{
			"buffer":0,
			"byteLength":576,
			"byteOffset":30576,
			"target":34962
		},
		{
			"buffer":0,
			"byteLength":384,
			"byteOffset":31152,
			"target":34962
		},
		{
			"buffer":0,
			"byteLength":936,
			"byteOffset":31536,
			"target":34962
		},
		{
			"buffer":0,
			"byteLength":936,
			"byteOffset":32472,
			"target":34962
		},
		{
			"buffer":0,
			"byteLength":624,
			"byteOffset":33408,
			"target":34962
		},
		{
			"buffer":0,
			"byteLength":1248,
			"byteOffset":34032,
			"target":34962
		},
		{
			"buffer":0,
			"byteLength":168,
			"byteOffset":35280,
			"target":34963
		},
		{
			"buffer":0,
			"byteLength":2424,
			"byteOffset":35448,
			"target":34962
		},
		{
			"buffer":0,
			"byteLength":2424,
			"byteOffset":37872,
			"target":34962
		},
		{
			"buffer":0,
			"byteLength":1616,
			"byteOffset":40296,
			"target":34962
		},
		{
			"buffer":0,
			"byteLength":3232,
			"byteOffset":41912,
			"target":34962
		},
		{
			"buffer":0,
			"byteLength":432,
			"byteOffset":45144,
			"target":34963
		},
		{
			"buffer":0,
			"byteLength":1536,
			"byteOffset":45576,
			"target":34962
		},
		{
			"buffer":0,
			"byteLength":1536,
			"byteOffset":47112,
			"target":34962
		},
		{
			"buffer":0,
			"byteLength":1024,
			"byteOffset":48648,
			"target":34962
		},
		{
			"buffer":0,
			"byteLength":2048,
			"byteOffset":49672,
			"target":34962
		},
		{
			"buffer":0,
			"byteLength":384,
			"byteOffset":51720,
			"target":34963
		},
		{
			"buffer":0,
			"byteLength":576,
			"byteOffset":52104
		}
	],
	"buffers":[
		{
			"byteLength":52680,
			"uri":"mycelifolk_redwhite_1-596112016bab3daba654d16dc6d1d7b4.bin"
		}
	]
}
